<svg width="21" height="21" viewBox="0 0 21 21" fill="none" xmlns="http://www.w3.org/2000/svg">
<path d="M15.1442 7C15.1442 5.60761 14.6124 4.27225 13.6657 3.28769C12.719 2.30312 11.435 1.75 10.0962 1.75C8.75733 1.75 7.47333 2.30312 6.52663 3.28769C5.57994 4.27225 5.04809 5.60761 5.04809 7C5.04809 13.125 2.52405 14.875 2.52405 14.875H17.6683C17.6683 14.875 15.1442 13.125 15.1442 7Z" stroke="#CED1D2" stroke-width="2" stroke-linecap="round" stroke-linejoin="round"/>
<path d="M11.5518 18.375C11.4039 18.6402 11.1916 18.8603 10.9361 19.0133C10.6807 19.1664 10.3911 19.2469 10.0963 19.2469C9.80149 19.2469 9.51187 19.1664 9.25642 19.0133C9.00098 18.8603 8.78866 18.6402 8.64075 18.375" stroke="#CED1D2" stroke-width="2" stroke-linecap="round" stroke-linejoin="round"/>
</svg>
