<svg width="22" height="22" viewBox="0 0 22 22" fill="none" xmlns="http://www.w3.org/2000/svg">
<path d="M9.94571 3.10829H2.98794C2.4607 3.10829 1.95506 3.31773 1.58225 3.69054C1.20944 4.06335 1 4.56899 1 5.09623V19.0118C1 19.539 1.20944 20.0447 1.58225 20.4175C1.95506 20.7903 2.4607 20.9997 2.98794 20.9997H16.9035C17.4307 20.9997 17.9364 20.7903 18.3092 20.4175C18.682 20.0447 18.8914 19.539 18.8914 19.0118V12.054" stroke="#C4C4C4" stroke-width="2" stroke-linecap="round" stroke-linejoin="round"/>
<path d="M17.4005 1.61757C17.7959 1.22215 18.3322 1 18.8914 1C19.4506 1 19.987 1.22215 20.3824 1.61757C20.7778 2.013 21 2.54931 21 3.10852C21 3.66774 20.7778 4.20405 20.3824 4.59948L10.9397 14.0422L6.96381 15.0361L7.95777 11.0603L17.4005 1.61757Z" stroke="#C4C4C4" stroke-width="2" stroke-linecap="round" stroke-linejoin="round"/>
</svg>
