<svg width="119" height="28" viewBox="0 0 119 28" fill="none" xmlns="http://www.w3.org/2000/svg">
<path d="M15.7356 0H12.1378V12.7486H15.7356V0Z" fill="white"/>
<path d="M24.3388 11.1062C24.2606 11.0279 24.2606 10.8715 24.1824 10.7933L24.026 10.4805L23.7131 9.93298C23.4785 9.54191 23.2439 9.22906 23.0092 8.838C22.8528 8.68158 22.7746 8.52515 22.6182 8.36873C22.4617 8.21231 22.3835 8.05588 22.2271 7.89946C22.0707 7.74303 21.9143 7.58661 21.7578 7.43018C21.6796 7.35197 21.6014 7.27376 21.5232 7.19555L21.2886 7.03912C20.4282 6.33521 19.5679 5.70951 18.6293 5.31845V7.58661C19.0204 7.89946 19.4115 8.2123 19.8025 8.60337L19.959 8.75979C20.0372 8.838 20.0372 8.91621 20.1154 8.91621C20.1936 9.07264 20.35 9.15085 20.4282 9.30728C20.5064 9.4637 20.6629 9.54191 20.7411 9.69834C20.8193 9.85476 20.8975 10.0112 21.0539 10.0894C21.2104 10.4022 21.3668 10.7151 21.5232 10.9497L21.7578 11.419L21.8361 11.6536C21.8361 11.7319 21.9143 11.8101 21.9143 11.8883C22.3053 13.1397 22.4617 14.5475 22.3053 15.7989C22.1489 17.0503 21.7578 18.1453 21.2886 19.0056C21.2104 19.0838 21.2104 19.2402 21.1321 19.3184C21.0539 19.3967 20.9757 19.4749 20.9757 19.6313C20.8193 19.7877 20.7411 20.0224 20.5847 20.1788C20.35 20.4916 20.1154 20.7263 19.8807 20.9609C19.6461 21.1173 19.5679 21.352 19.4115 21.4302C19.3333 21.5084 19.255 21.5866 19.255 21.5866C19.255 21.5866 19.1768 21.6648 18.9422 21.8212C18.864 21.8995 18.7076 21.9777 18.5511 22.0559C18.3947 22.1341 18.2383 22.2905 18.0819 22.3687C17.2997 22.838 16.1266 23.3073 14.6405 23.4637C14.5623 23.4637 14.4841 23.4637 14.3277 23.4637C14.2495 23.4637 14.1712 23.4637 14.0148 23.4637C13.8584 23.4637 13.6238 23.4637 13.3891 23.4637C12.9981 23.3855 12.607 23.3855 12.1377 23.3073C11.2774 23.1508 10.4953 22.838 9.71315 22.3687C8.93102 21.8995 8.22711 21.2738 7.67963 20.5698C7.13214 19.8659 6.66287 19.0056 6.35002 18.1453C6.03717 17.2849 5.95896 16.3464 6.03717 15.486C6.11538 14.6257 6.2718 13.7654 6.58465 12.9833C6.8975 12.2011 7.36678 11.5754 7.83605 11.0279C8.30532 10.4805 8.85281 10.0112 9.4003 9.69834C9.47851 9.62013 9.55672 9.62013 9.63493 9.54191V1.95532C8.38354 2.34638 6.8975 2.97208 5.48968 4.06705C4.47292 4.84918 3.53437 5.78772 2.67404 6.96091C1.8137 8.13409 1.10979 9.4637 0.64052 10.9497C0.171246 12.4358 -0.063391 14 0.0148213 15.5643C0.0930336 17.1285 0.484095 18.771 1.10979 20.1788C1.73549 21.6648 2.67404 22.9944 3.76901 24.0894C4.86398 25.1844 6.11538 26.0447 7.44499 26.7486C8.7746 27.3743 10.1042 27.7654 11.4338 27.9218C12.0595 28 12.7634 28 13.3109 28C13.6238 28 13.9366 27.9218 14.2495 27.9218C14.4059 27.9218 14.5623 27.9218 14.7187 27.8436C14.8752 27.8436 15.0316 27.7654 15.1098 27.7654C17.378 27.3743 19.0986 26.4358 20.1154 25.6536C20.35 25.4972 20.5847 25.2626 20.8193 25.1062C21.0539 24.9497 21.2104 24.7933 21.2886 24.7151C21.5232 24.4805 21.6796 24.324 21.6796 24.324C21.6796 24.324 21.7578 24.2458 21.9143 24.0894C22.0707 23.933 22.2271 23.6983 22.54 23.3855C22.7746 23.0726 23.0874 22.6816 23.4003 22.2123C23.5567 21.9777 23.7131 21.743 23.8696 21.4302C23.9478 21.2738 24.026 21.1955 24.1042 21.0391C24.1824 20.8827 24.2606 20.7263 24.3388 20.5698C24.8863 19.3184 25.2774 17.7542 25.2774 16.1117C25.3556 14.4693 25.0428 12.7486 24.3388 11.1062Z" fill="white"/>
<path d="M30.6741 14.5475C30.9869 14.2347 31.2998 13.9218 31.6126 13.609C31.9255 13.2961 32.3165 13.0615 32.7076 12.9051C33.0987 12.6705 33.4897 12.5922 33.8808 12.4358C34.2718 12.3576 34.7411 12.2794 35.2886 12.2794C36.0707 12.2794 36.6964 12.4358 37.3221 12.6704C37.8696 12.9051 38.4171 13.2961 38.8082 13.7654C39.1992 14.2347 39.5121 14.7822 39.6685 15.4079C39.9031 16.0336 39.9813 16.7375 39.9813 17.5196V26.3576H37.5568V17.5196C37.5568 16.5029 37.3221 15.6425 36.8528 15.095C36.3836 14.5475 35.6797 14.2347 34.6629 14.2347C33.959 14.2347 33.2551 14.3911 32.6294 14.7822C32.0037 15.1732 31.4562 15.5643 30.9087 16.19V26.4358H28.4841V12.514H29.9702C30.283 12.514 30.5177 12.6705 30.5959 12.9833L30.6741 14.5475Z" fill="white"/>
<path d="M46.1601 6.17883V26.3576H43.7355V6.17883H46.1601Z" fill="white"/>
<path d="M53.1992 8.13415C53.1992 8.36879 53.121 8.60342 53.0428 8.75985C52.9646 8.99448 52.8082 9.15091 52.6518 9.30733C52.4953 9.46376 52.3389 9.62018 52.1043 9.6984C51.8696 9.77661 51.635 9.85482 51.4004 9.85482C51.1657 9.85482 50.9311 9.77661 50.7747 9.6984C50.54 9.62018 50.3836 9.46376 50.2272 9.30733C50.0707 9.15091 49.9143 8.99448 49.8361 8.75985C49.7579 8.52521 49.6797 8.36879 49.6797 8.13415C49.6797 7.89951 49.7579 7.66488 49.8361 7.43024C49.9143 7.1956 50.0707 7.03918 50.2272 6.88275C50.3836 6.72633 50.54 6.5699 50.7747 6.49169C51.0093 6.41348 51.1657 6.33527 51.4004 6.33527C51.635 6.33527 51.8696 6.41348 52.1043 6.49169C52.3389 6.5699 52.4953 6.72633 52.6518 6.88275C52.8082 7.03918 52.9646 7.1956 53.0428 7.43024C53.121 7.66488 53.1992 7.89951 53.1992 8.13415ZM52.6518 12.514V26.3576H50.2272V12.514H52.6518Z" fill="white"/>
<path d="M58.9869 14.5475C59.2998 14.2347 59.6126 13.9218 59.9255 13.609C60.2383 13.2961 60.6294 13.0615 61.0205 12.9051C61.4115 12.6705 61.8026 12.5922 62.1936 12.4358C62.5847 12.3576 63.054 12.2794 63.6015 12.2794C64.3836 12.2794 65.0093 12.4358 65.635 12.6704C66.1825 12.9051 66.73 13.2961 67.121 13.7654C67.5121 14.2347 67.8249 14.7822 67.9813 15.4079C68.216 16.0336 68.2942 16.7375 68.2942 17.5196V26.3576H65.8696V17.5196C65.8696 16.5029 65.635 15.6425 65.1657 15.095C64.6964 14.5475 63.9925 14.2347 62.9758 14.2347C62.2719 14.2347 61.5679 14.3911 60.9422 14.7822C60.3165 15.1732 59.7691 15.5643 59.2216 16.19V26.4358H56.797V12.514H58.283C58.5959 12.514 58.8305 12.6705 58.9087 12.9833L58.9869 14.5475Z" fill="white"/>
<path d="M83.2328 24.4023C82.9199 24.7934 82.6071 25.1062 82.1378 25.3409C81.7468 25.5755 81.2775 25.8101 80.8082 25.9666C80.3389 26.123 79.8697 26.2794 79.3222 26.3576C78.7747 26.4358 78.3054 26.514 77.8362 26.514C76.8976 26.514 75.9591 26.3576 75.1769 26.0448C74.3948 25.7319 73.6909 25.2626 73.0652 24.6369C72.4395 24.0113 72.0484 23.2291 71.6574 22.2906C71.3445 21.352 71.1881 20.3353 71.1881 19.0839C71.1881 18.1453 71.3445 17.2068 71.6574 16.3464C71.9702 15.4861 72.3613 14.7822 72.9088 14.1565C73.4563 13.5308 74.1602 13.0615 74.9423 12.6705C75.7244 12.3576 76.663 12.123 77.6797 12.123C78.5401 12.123 79.244 12.2794 79.9479 12.514C80.6518 12.8269 81.2775 13.218 81.7468 13.6872C82.216 14.1565 82.6853 14.8604 82.92 15.6425C83.2328 16.4247 83.3892 17.285 83.3892 18.3018C83.3892 18.6928 83.311 18.9275 83.2328 19.0839C83.1546 19.2403 82.9982 19.2403 82.7635 19.2403H73.5345C73.5345 20.1006 73.6909 20.8828 73.9255 21.5085C74.1602 22.1342 74.473 22.6816 74.7859 23.1509C75.1769 23.6202 75.6462 23.933 76.1937 24.0895C76.7412 24.2459 77.2887 24.4023 77.9926 24.4023C78.6183 24.4023 79.1658 24.3241 79.5568 24.1677C80.0261 24.0113 80.4172 23.8548 80.73 23.6984C81.0429 23.542 81.2775 23.3856 81.5121 23.2291C81.7468 23.0727 81.9032 22.9945 82.0596 22.9945C82.2943 22.9945 82.4507 23.0727 82.5289 23.2291L83.2328 24.4023ZM81.1993 17.9107C81.1993 17.3632 81.1211 16.8157 80.9646 16.3464C80.8082 15.8772 80.5736 15.4861 80.2607 15.0951C79.9479 14.704 79.5568 14.4694 79.1658 14.3129C78.6965 14.1565 78.2272 14.0001 77.6797 14.0001C76.5065 14.0001 75.568 14.3129 74.9423 15.0168C74.3166 15.7208 73.8473 16.6593 73.6909 17.8325H81.1993V17.9107V17.9107Z" fill="white"/>
<path d="M117.177 9.69833H93.6349L89.6461 12.905V25.9665C89.6461 26.6704 90.35 27.2179 91.2104 27.2179H117.177C118.037 27.2179 118.741 26.6704 118.741 25.9665V10.9497C118.819 10.2458 118.037 9.69833 117.177 9.69833ZM99.7355 21.0391C99.5791 21.352 99.4227 21.6648 99.188 21.8995C98.9534 22.1341 98.6405 22.2905 98.3277 22.4469C98.0148 22.6034 97.6238 22.6816 97.1545 22.6816C96.9199 22.6816 96.6852 22.6816 96.3724 22.6034C96.0595 22.5251 95.9031 22.4469 95.6685 22.3687C95.4338 22.2905 95.1992 22.1341 95.0428 22.0559C94.8863 21.9777 94.6517 21.8212 94.4953 21.6648L94.9645 20.9609C94.9645 20.8827 95.0428 20.8827 95.121 20.8045C95.1992 20.7263 95.2774 20.7263 95.2774 20.7263C95.3556 20.7263 95.4338 20.7263 95.5903 20.8045C95.7467 20.8827 95.8249 20.9609 95.9813 21.0391C96.1377 21.1173 96.2942 21.1955 96.5288 21.2738C96.7634 21.352 96.9981 21.352 97.2327 21.352C97.6238 21.352 98.0148 21.2738 98.2495 21.0391C98.4841 20.8045 98.5623 20.5698 98.5623 20.1788C98.5623 19.9441 98.4841 19.7877 98.4059 19.6313C98.3277 19.4749 98.1713 19.3967 98.0148 19.3184C97.8584 19.2402 97.6238 19.162 97.3891 19.0838C97.1545 19.0056 96.9199 18.9274 96.6852 18.8492C96.4506 18.771 96.2159 18.6927 95.9813 18.6145C95.7467 18.5363 95.5902 18.3799 95.3556 18.2235C95.1992 18.067 95.0428 17.8324 94.9645 17.5978C94.8863 17.3631 94.8081 17.0503 94.8081 16.6592C94.8081 16.3464 94.8863 16.1117 94.9645 15.7989C95.0428 15.486 95.2774 15.2514 95.4338 15.095C95.6685 14.8603 95.9031 14.7039 96.216 14.5475C96.5288 14.3911 96.9199 14.3911 97.3109 14.3911C97.7802 14.3911 98.2495 14.4693 98.6405 14.6257C99.0316 14.7821 99.3444 15.0168 99.6573 15.2514L99.2662 15.9553C99.188 16.0335 99.188 16.1117 99.1098 16.1117C99.0316 16.1117 99.0316 16.19 98.9534 16.19C98.8752 16.19 98.797 16.19 98.7187 16.1117C98.6405 16.0335 98.4841 15.9553 98.4059 15.9553C98.3277 15.9553 98.1713 15.7989 97.9366 15.7989C97.702 15.7989 97.5456 15.7207 97.3109 15.7207C97.0763 15.7207 96.9199 15.7207 96.7634 15.7989C96.607 15.8771 96.4506 15.9553 96.3724 16.0335C96.2942 16.1117 96.2159 16.19 96.1377 16.3464C96.0595 16.5028 96.0595 16.581 96.0595 16.7374C96.0595 16.8939 96.1377 17.0503 96.216 17.2067C96.2942 17.3631 96.4506 17.4414 96.607 17.5196C96.7634 17.5978 96.9981 17.676 97.2327 17.7542C97.4673 17.8324 97.702 17.9106 97.9366 17.9888C98.1713 18.067 98.4059 18.1453 98.6405 18.3017C98.8752 18.3799 99.0316 18.5363 99.2662 18.6927C99.5009 18.8492 99.5791 19.0838 99.6573 19.3184C99.7355 19.5531 99.8137 19.8659 99.8137 20.1788C99.8919 20.3352 99.8137 20.7263 99.7355 21.0391ZM103.568 22.5251H102.082V14.5475H103.568V22.5251ZM114.83 22.5251H113.501V17.3631C113.501 17.1285 113.501 16.9721 113.501 16.6592L111.076 21.1955C110.998 21.4302 110.763 21.5084 110.529 21.5084H110.294C110.06 21.5084 109.903 21.4302 109.747 21.1955L107.322 16.6592C107.322 16.8157 107.322 16.8939 107.322 17.0503C107.322 17.2067 107.322 17.2849 107.322 17.3631V22.5251H105.992V14.5475H107.087C107.166 14.5475 107.244 14.5475 107.244 14.5475C107.322 14.5475 107.322 14.5475 107.4 14.5475C107.4 14.5475 107.479 14.5475 107.479 14.6257C107.479 14.7039 107.557 14.7039 107.557 14.7821L109.981 19.2402C110.06 19.3967 110.138 19.4749 110.138 19.6313C110.216 19.7877 110.216 19.8659 110.294 20.0224C110.372 19.8659 110.372 19.7877 110.451 19.6313C110.529 19.4749 110.529 19.3967 110.607 19.2402L112.953 14.8603C112.953 14.7821 113.032 14.7821 113.032 14.7039C113.032 14.6257 113.11 14.6257 113.11 14.6257C113.11 14.6257 113.188 14.6257 113.266 14.6257C113.344 14.6257 113.344 14.6257 113.423 14.6257H114.518V22.5251H114.83Z" fill="white"/>
</svg>
